<svg xmlns="http://www.w3.org/2000/svg" width="1200" height="630" viewBox="0 0 1200 630">
  <defs>
    <linearGradient id="g" x1="0" y1="0" x2="1" y2="1">
      <stop offset="0" stop-color="#5b8def"/>
      <stop offset="1" stop-color="#7ba4f7"/>
    </linearGradient>
    <style>
      .bg{fill:url(#g)}
      .panel{fill:rgba(255,255,255,0.94)}
      .ink{fill:#2d3436}
      .muted{fill:rgba(45,52,54,0.65)}
      .cell-bg{fill:#ffffff}
      .title{font:800 84px ui-sans-serif,system-ui,-apple-system,Segoe UI,Roboto,Helvetica,Arial}
      .sub{font:600 34px ui-sans-serif,system-ui,-apple-system,Segoe UI,Roboto,Helvetica,Arial}
      .mono{font:700 28px ui-monospace,SFMono-Regular,Menlo,Monaco,Consolas,monospace}
    </style>
  </defs>

  <rect class="bg" x="0" y="0" width="1200" height="630"/>

  <g transform="translate(70 80)">
    <rect class="panel" x="0" y="0" width="1060" height="470" rx="36"/>

    <g transform="translate(60 70)">
      <text class="title ink" x="0" y="0" dominant-baseline="hanging">nonogram</text>
      <text class="sub muted" x="0" y="108" dominant-baseline="hanging">friends-only puzzle room</text>
      <text class="mono muted" x="0" y="170" dominant-baseline="hanging">5x5 + 10x10 • replays • leaderboards</text>
    </g>

    <!-- 4x4 grid-aligned mini board -->
    <g transform="translate(740 105)">
      <!-- each cell 60x60, 4px gap, total = 4*60 + 3*4 = 252 -->
      <rect class="cell-bg" x="0"   y="0"   width="60" height="60" rx="10"/>
      <rect class="cell-bg" x="64"  y="0"   width="60" height="60" rx="10"/>
      <rect class="cell-bg" x="128" y="0"   width="60" height="60" rx="10"/>
      <rect class="cell-bg" x="192" y="0"   width="60" height="60" rx="10"/>
      <rect class="cell-bg" x="0"   y="64"  width="60" height="60" rx="10"/>
      <rect class="cell-bg" x="64"  y="64"  width="60" height="60" rx="10"/>
      <rect class="cell-bg" x="128" y="64"  width="60" height="60" rx="10"/>
      <rect class="cell-bg" x="192" y="64"  width="60" height="60" rx="10"/>
      <rect class="cell-bg" x="0"   y="128" width="60" height="60" rx="10"/>
      <rect class="cell-bg" x="64"  y="128" width="60" height="60" rx="10"/>
      <rect class="cell-bg" x="128" y="128" width="60" height="60" rx="10"/>
      <rect class="cell-bg" x="192" y="128" width="60" height="60" rx="10"/>
      <rect class="cell-bg" x="0"   y="192" width="60" height="60" rx="10"/>
      <rect class="cell-bg" x="64"  y="192" width="60" height="60" rx="10"/>
      <rect class="cell-bg" x="128" y="192" width="60" height="60" rx="10"/>
      <rect class="cell-bg" x="192" y="192" width="60" height="60" rx="10"/>
      <!-- filled cells (X pattern) -->
      <rect class="ink" x="0"   y="0"   width="60" height="60" rx="10"/>
      <rect class="ink" x="192" y="0"   width="60" height="60" rx="10"/>
      <rect class="ink" x="64"  y="64"  width="60" height="60" rx="10"/>
      <rect class="ink" x="128" y="64"  width="60" height="60" rx="10"/>
      <rect class="ink" x="64"  y="128" width="60" height="60" rx="10"/>
      <rect class="ink" x="128" y="128" width="60" height="60" rx="10"/>
      <rect class="ink" x="0"   y="192" width="60" height="60" rx="10"/>
      <rect class="ink" x="192" y="192" width="60" height="60" rx="10"/>
    </g>
  </g>
</svg>
